<svg width="255" height="232" viewBox="0 0 255 232" fill="none" xmlns="http://www.w3.org/2000/svg">
<path d="M66.4888 134.301C66.4888 186.097 108.478 228.086 160.273 228.086C212.07 228.086 254.061 186.097 254.061 134.301C254.061 82.5044 212.07 40.5151 160.273 40.5151C108.478 40.5151 66.4888 82.5044 66.4888 134.301Z" fill="white"/>
<path d="M160.273 227.086C109.03 227.086 67.4888 185.545 67.4888 134.301C67.4888 83.0567 109.03 41.5151 160.273 41.5151C211.517 41.5151 253.061 83.0567 253.061 134.301C253.061 185.545 211.517 227.086 160.273 227.086Z" stroke="#2773D9" stroke-opacity="0.6" stroke-width="2"/>
<path d="M178.127 72.6963C168.607 92.4345 152.261 80.6634 148.508 72.6946C155.956 72.6928 153.568 57.5968 152.499 50.0491H174.498C174.083 61.6747 176.743 69.9916 178.127 72.6963Z" fill="#FCC4AC"/>
<path d="M178.127 72.6963C168.607 92.4345 152.261 80.6634 148.508 72.6946C155.956 72.6928 153.568 57.5968 152.499 50.0491H174.498C174.083 61.6747 176.743 69.9916 178.127 72.6963Z" fill="url(#paint0_linear_5_1475)"/>
<path d="M128.07 82.4178C127.957 114.686 119.144 200.024 117.837 213.305C117.148 220.331 134.295 226.472 153.497 227.845C178.442 229.63 199.307 221.217 203.809 217.381C205.05 179.028 207.016 95.3091 207.016 88.195C197.685 81.5465 184.322 75.3227 178.127 72.6969C165.833 80.3147 157.042 77.7127 151.269 71.8179C142.592 73.4387 132.121 79.9482 128.07 82.4178Z" fill="#307FE2"/>
<path d="M128.07 82.4178C127.957 114.686 119.144 200.024 117.837 213.305C117.148 220.331 134.295 226.472 153.497 227.845C178.442 229.63 199.307 221.217 203.809 217.381C205.05 179.028 207.016 95.3091 207.016 88.195C197.685 81.5465 184.322 75.3227 178.127 72.6969C165.833 80.3147 157.042 77.7127 151.269 71.8179C142.592 73.4387 132.121 79.9482 128.07 82.4178Z" fill="url(#paint1_linear_5_1475)"/>
<path d="M128.07 82.4178C127.957 114.686 119.144 200.024 117.837 213.305C117.148 220.331 134.295 226.472 153.497 227.845C178.442 229.63 199.307 221.217 203.809 217.381C205.05 179.028 207.016 95.3091 207.016 88.195C197.685 81.5465 184.322 75.3227 178.127 72.6969C165.833 80.3147 157.042 77.7127 151.269 71.8179C142.592 73.4387 132.121 79.9482 128.07 82.4178Z" fill="#2773D9"/>
<path opacity="0.35" d="M150.044 72.0748C150.193 72.0403 150.341 72.0077 150.484 71.9756C151.321 77.3507 152.146 84.5628 152.432 91.9994C152.788 101.35 152.283 111.087 149.83 117.972C146.807 126.477 146.807 136.806 147.567 146.422C147.888 150.533 148.351 154.507 148.779 158.149V158.149V158.163C148.85 158.773 148.921 159.374 148.987 159.964C149.462 164.077 149.848 167.699 149.848 170.493C149.848 171.1 149.848 171.695 149.848 172.28C149.872 177.044 149.89 181.171 148.565 186.061C147.086 191.552 143.921 197.99 137.221 207.398C136.389 208.577 136.193 210.24 136.473 212.204C136.746 214.163 137.482 216.383 138.468 218.64C139.579 221.191 140.998 223.774 142.4 226.057C142.204 226.018 142.002 225.978 141.806 225.938C140.464 223.729 139.122 221.261 138.058 218.819C137.067 216.544 136.312 214.281 136.027 212.266C135.748 210.256 135.926 208.454 136.853 207.139V207.138C143.54 197.752 146.67 191.363 148.132 185.944C149.438 181.116 149.42 177.049 149.403 172.281V172.279C149.403 171.695 149.397 171.101 149.397 170.493C149.397 167.729 149.017 164.134 148.541 160.016C148.476 159.423 148.405 158.82 148.333 158.207V158.202V158.202C147.906 154.561 147.443 150.577 147.116 146.457C146.356 136.831 146.356 126.421 149.408 117.821C151.826 111.021 152.337 101.357 151.98 92.0161C151.701 84.6121 150.881 77.4303 150.044 72.0748Z" fill="white"/>
<path opacity="0.35" d="M121.415 218.938C121.629 219.085 121.849 219.231 122.08 219.376C121.201 217.289 120.548 215.247 120.293 213.43C120.019 211.466 120.209 209.803 121.041 208.624C127.74 199.217 130.906 192.778 132.391 187.287C133.709 182.398 133.692 178.27 133.674 173.506V173.496C133.668 172.915 133.668 172.323 133.668 171.719C133.668 168.925 133.288 165.304 132.813 161.191C132.741 160.6 132.67 159.999 132.599 159.389V159.375V159.375C132.171 155.733 131.708 151.759 131.387 147.648C130.627 138.032 130.627 127.703 133.656 119.198C136.103 112.313 136.608 102.576 136.251 93.2256C136.05 87.9597 135.58 82.8068 135.022 78.3386C134.88 78.4164 134.737 78.4942 134.6 78.572C135.147 82.9867 135.604 88.0601 135.8 93.2422C136.156 102.583 135.646 112.247 133.228 119.047C130.176 127.647 130.176 138.057 130.936 147.683C131.262 151.804 131.726 155.787 132.153 159.428V159.428V159.433C132.225 160.046 132.296 160.649 132.367 161.242C132.842 165.361 133.217 168.955 133.217 171.719C133.217 172.326 133.222 172.92 133.222 173.502V173.507C133.24 178.275 133.258 182.342 131.957 187.17C130.49 192.589 127.36 198.978 120.673 208.364V208.365C119.746 209.68 119.568 211.482 119.847 213.492C120.085 215.18 120.655 217.041 121.415 218.938Z" fill="white"/>
<path opacity="0.35" d="M158.566 228.444C157.444 226.522 156.351 224.448 155.454 222.391C154.462 220.117 153.708 217.854 153.429 215.839C153.144 213.828 153.322 212.027 154.249 210.712V210.711C160.936 201.325 164.072 194.935 165.533 189.517C166.834 184.689 166.816 180.621 166.798 175.853V175.851C166.798 175.268 166.792 174.674 166.792 174.066C166.792 171.302 166.418 167.707 165.943 163.588C165.872 162.994 165.801 162.389 165.729 161.775V161.775C165.308 158.134 164.838 154.15 164.518 150.03C163.757 140.403 163.752 129.993 166.81 121.394C169.228 114.594 169.732 104.93 169.382 95.589C169.121 88.8128 168.414 82.2226 167.654 77.0476C167.802 77.0203 167.951 76.9906 168.093 76.9597C168.853 82.1525 169.572 88.7683 169.827 95.5718C170.184 104.923 169.679 114.66 167.232 121.544C164.209 130.049 164.203 140.379 164.963 149.994C165.29 154.106 165.753 158.08 166.175 161.721V161.721C166.246 162.336 166.317 162.942 166.389 163.537C166.864 167.65 167.244 171.271 167.244 174.066C167.244 174.672 167.244 175.268 167.25 175.853C167.268 180.616 167.285 184.744 165.967 189.634C164.482 195.124 161.322 201.563 154.617 210.97C153.785 212.149 153.595 213.813 153.868 215.776C154.148 217.735 154.884 219.956 155.864 222.213C156.797 224.352 157.949 226.514 159.119 228.502C158.935 228.483 158.751 228.464 158.566 228.444Z" fill="white"/>
<path opacity="0.35" d="M177.145 229.616C175.779 227.38 174.412 224.872 173.331 222.391C172.34 220.116 171.585 217.853 171.3 215.838C171.021 213.828 171.199 212.026 172.126 210.711V210.711C178.813 201.324 181.944 194.935 183.411 189.516C184.711 184.688 184.693 180.621 184.676 175.853C184.676 175.268 184.67 174.674 184.67 174.066C184.67 171.301 184.296 167.706 183.82 163.588C183.749 162.994 183.678 162.39 183.607 161.775V161.774C183.185 158.133 182.716 154.15 182.395 150.03C181.629 140.403 181.629 129.993 184.687 121.393C187.105 114.594 187.61 104.929 187.259 95.5887C186.98 88.329 186.184 81.2826 185.371 75.9622C185.531 76.0388 185.691 76.1166 185.858 76.195C186.659 81.4946 187.431 88.4294 187.705 95.5715C188.061 104.923 187.556 114.659 185.109 121.544C182.086 130.049 182.08 140.378 182.84 149.994C183.167 154.106 183.63 158.08 184.052 161.721V161.729C184.123 162.341 184.195 162.944 184.266 163.536C184.741 167.649 185.121 171.271 185.121 174.066C185.121 174.672 185.121 175.266 185.127 175.85V175.852C185.145 180.616 185.163 184.743 183.844 189.633C182.359 195.124 179.2 201.563 172.494 210.97C171.663 212.149 171.472 213.812 171.746 215.776C172.025 217.735 172.761 219.955 173.741 222.212C174.852 224.761 176.271 227.343 177.673 229.625C177.495 229.622 177.323 229.619 177.145 229.616Z" fill="white"/>
<path opacity="0.35" d="M195.284 228.718C194.108 226.72 192.95 224.545 192.012 222.391C191.02 220.116 190.266 217.853 189.987 215.838C189.701 213.828 189.886 212.026 190.806 210.711L190.812 210.711C197.5 201.324 200.63 194.935 202.091 189.516C203.392 184.688 203.38 180.621 203.362 175.853C203.356 175.268 203.356 174.674 203.356 174.066C203.356 171.301 202.976 167.706 202.501 163.588C202.429 162.995 202.364 162.391 202.293 161.778V161.775C201.865 158.133 201.402 154.15 201.075 150.03C200.315 140.403 200.309 129.993 203.368 121.393C205.785 114.594 206.296 104.929 205.94 95.5886C205.827 92.6819 205.637 89.8096 205.387 87.0686C205.553 87.1773 205.708 87.286 205.868 87.3947C206.1 90.0323 206.284 92.7858 206.385 95.5714C206.741 104.923 206.237 114.659 203.79 121.543C200.766 130.049 200.76 140.378 201.521 149.994C201.847 154.106 202.311 158.08 202.738 161.721C202.81 162.336 202.875 162.941 202.946 163.536C203.421 167.649 203.801 171.271 203.801 174.066C203.801 174.672 203.807 175.267 203.807 175.852C203.825 180.616 203.843 184.743 202.524 189.633C201.04 195.123 197.88 201.563 191.174 210.97C190.349 212.149 190.153 213.812 190.432 215.776C190.705 217.735 191.442 219.955 192.428 222.212C193.378 224.401 194.56 226.615 195.76 228.641C195.605 228.667 195.445 228.693 195.284 228.718Z" fill="white"/>
<path d="M139.159 18.3152C138.862 25.0747 139.159 41.5926 139.159 53.6922C139.159 74.1443 169.812 58.2857 174.498 50.0479C183.728 33.8228 173.524 19.1912 171.576 18.3152H139.159Z" fill="url(#paint2_linear_5_1475)"/>
<path d="M139.159 18.3152C138.862 25.0747 139.159 41.5926 139.159 53.6922C139.159 74.1443 169.812 58.2857 174.498 50.0479C183.728 33.8228 173.524 19.1912 171.576 18.3152H139.159Z" fill="#FCC4AC"/>
<path d="M174.985 12.3535C181.684 11.0813 180.704 16.5063 180.318 17.3894C196.325 21.7994 176.867 54.1319 174.48 54.8048L174.462 48.7717C174.438 46.3674 179.142 43.9175 176.57 39.6922C173.155 34.0831 172.413 45.1047 172.413 45.1047C169.989 43.829 169.11 34.6824 171.367 29.5069C163.444 33.0022 158.247 26.4909 157.244 24.6307C151.655 27.8801 143.09 26.5752 140.334 23.8995C139.895 25.3921 139.022 28.1705 139.022 33.036C132.631 29.5948 129.335 16.8911 132.714 18.0505C132.281 -7.24751 154.607 1.84799 157.244 4.85448C159.875 7.86097 160.498 7.01877 160.843 6.79367C170.251 2.20138 174.824 6.7521 173.945 9.65168C173.06 12.5513 174.723 12.4117 174.985 12.3535Z" fill="#6E000E"/>
<path d="M42.6763 125.481C37.8869 125.906 33.7263 123.048 34.6576 122.725C47.1189 118.401 63.872 123.787 73.5561 126.758C76.9546 133.626 71.314 141.238 68.0693 144.185C66.4337 142.534 63.0512 140.398 60.8329 140.398C49.5606 139.778 38.7124 155.952 27.6878 147.901C18.8685 141.46 34.0055 130.27 42.6763 125.481Z" fill="#F4B88E"/>
<path d="M42.6763 125.481C37.8869 125.906 33.7263 123.048 34.6576 122.725C47.1189 118.401 63.872 123.787 73.5561 126.758C76.9546 133.626 71.314 141.238 68.0693 144.185C66.4337 142.534 63.0512 140.398 60.8329 140.398C49.5606 139.778 38.7124 155.952 27.6878 147.901C18.8685 141.46 34.0055 130.27 42.6763 125.481Z" fill="#FCC4AC"/>
<path d="M128.069 82.4133C129.239 104.048 125.693 141.312 122.997 160.274C120.146 167.42 59.4713 145.17 61.0832 140.868C62.6957 136.566 66.7339 130.261 68.7277 125.197C70.0961 121.723 105.019 138.09 106.31 132.219C107.602 126.348 108.596 93.3554 128.069 82.4133Z" fill="#307FE2"/>
<path d="M128.069 82.4133C129.239 104.048 125.693 141.312 122.997 160.274C120.146 167.42 59.4713 145.17 61.0832 140.868C62.6957 136.566 66.7339 130.261 68.7277 125.197C70.0961 121.723 105.019 138.09 106.31 132.219C107.602 126.348 108.596 93.3554 128.069 82.4133Z" fill="url(#paint3_linear_5_1475)"/>
<path d="M128.069 82.4133C129.239 104.048 125.693 141.312 122.997 160.274C120.146 167.42 59.4713 145.17 61.0832 140.868C62.6957 136.566 66.7339 130.261 68.7277 125.197C70.0961 121.723 105.019 138.09 106.31 132.219C107.602 126.348 108.596 93.3554 128.069 82.4133Z" fill="#2773D9"/>
<path opacity="0.35" fill-rule="evenodd" clip-rule="evenodd" d="M125.167 84.0701C120.789 95.859 119.572 112.801 121.55 125.65C122.536 132.058 123.064 137.686 122.215 142.294C121.371 146.885 119.162 150.456 114.658 152.774C112.99 153.633 111.448 153.526 109.823 152.933C108.614 152.492 107.381 151.79 106.025 151.019C105.537 150.741 105.032 150.454 104.507 150.167C100.561 148.009 95.6203 145.951 88.243 148.221C82.4931 149.991 76.7843 148.15 72.233 145.29C67.6763 142.426 64.3277 138.571 63.3008 136.394L62.8951 136.586C63.9684 138.862 67.3882 142.775 71.9942 145.67C76.6043 148.567 82.4516 150.473 88.3749 148.651C95.5888 146.431 100.398 148.432 104.291 150.561C104.797 150.837 105.291 151.118 105.773 151.392C107.14 152.17 108.422 152.899 109.669 153.355C111.376 153.978 113.055 154.105 114.864 153.174C119.512 150.782 121.793 147.082 122.654 142.375C123.521 137.686 122.975 131.99 121.989 125.581C120.023 112.796 121.241 95.9333 125.588 84.2263L125.167 84.0701ZM115.863 97.1461C116.006 96.3876 116.138 95.6892 116.252 95.0608L115.811 94.98C115.697 95.6054 115.566 96.3015 115.423 97.0588C114.651 101.151 113.544 107.02 112.963 113.024C112.275 120.127 112.317 127.477 114.557 132.314C117.19 137.996 116.125 141.924 113.752 143.863C111.362 145.815 107.559 145.832 104.535 143.513C102.898 142.258 100.297 140.722 96.9192 140.268C93.5349 139.814 89.3917 140.448 84.68 143.503C83.4755 144.284 81.5803 144.42 79.4154 144C77.2606 143.583 74.8837 142.625 72.7544 141.282C70.624 139.938 68.7561 138.217 67.605 136.282C66.4564 134.352 66.0246 132.217 66.7438 130.02L66.3174 129.88C65.5494 132.226 66.0192 134.496 67.2195 136.512C68.4169 138.524 70.3442 140.292 72.5145 141.661C74.6865 143.032 77.1151 144.012 79.3298 144.441C81.5345 144.867 83.5735 144.756 84.9241 143.88C89.552 140.879 93.5884 140.273 96.8592 140.713C100.135 141.153 102.664 142.644 104.262 143.87C107.426 146.295 111.462 146.313 114.036 144.211C116.625 142.095 117.647 137.915 114.965 132.125C112.78 127.409 112.723 120.17 113.41 113.067C113.989 107.085 115.091 101.239 115.863 97.1461Z" fill="white"/>
<path d="M68.7276 125.197C66.7338 130.262 62.6956 136.566 61.0831 140.868C60.8075 141.605 62.3577 142.868 65.1319 144.42C69.5858 141.122 73.4369 130.501 74.8053 125.603C71.4205 124.687 69.0638 124.345 68.7276 125.197Z" fill="#105CC1"/>
<path d="M193.989 230.889C196.103 229.908 203.237 215.698 207.014 205.816L198.449 198.952C186.405 202.995 181.415 215.047 184.439 214.551C187.462 214.054 187.741 215.688 185.139 219.118C175.144 232.276 191.079 232.243 193.989 230.889Z" fill="#FCC4AC"/>
<path d="M232.303 157.191C237.631 139.628 220.312 98.8335 207.014 88.1956C207.014 92.539 206.182 112.639 205.731 139.326C213.363 153.001 194.547 194.601 192.789 198.11C191.025 201.619 206.396 214.735 208.908 209.66C211.421 204.584 226.311 176.939 232.303 157.191Z" fill="#307FE2"/>
<path d="M232.303 157.191C237.631 139.628 220.312 98.8335 207.014 88.1956C207.014 92.539 206.182 112.639 205.731 139.326C213.363 153.001 194.547 194.601 192.789 198.11C191.025 201.619 206.396 214.735 208.908 209.66C211.421 204.584 226.311 176.939 232.303 157.191Z" fill="url(#paint4_linear_5_1475)"/>
<path d="M232.303 157.191C237.631 139.628 220.312 98.8335 207.014 88.1956C207.014 92.539 206.182 112.639 205.731 139.326C213.363 153.001 194.547 194.601 192.789 198.11C191.025 201.619 206.396 214.735 208.908 209.66C211.421 204.584 226.311 176.939 232.303 157.191Z" fill="#2773D9"/>
<path opacity="0.35" fill-rule="evenodd" clip-rule="evenodd" d="M208.906 99.8414C208.187 98.9516 207.528 98.1368 206.958 97.4104L206.601 97.6872C207.177 98.4225 207.848 99.2445 208.573 100.139C210.907 103.019 213.859 106.654 216.353 110.586C219.632 115.746 222.091 121.359 221.402 126.387C220.951 129.632 221.657 133.02 222.81 136.402C223.605 138.745 224.615 141.103 225.607 143.419C226.047 144.441 226.486 145.455 226.896 146.455C228.244 149.735 229.337 152.875 229.515 155.763C229.687 158.638 228.951 161.258 226.629 163.518C222.162 167.876 221.242 171.82 220.357 175.583C220.244 176.074 220.131 176.562 220.006 177.048C219.484 179.147 218.83 181.199 217.423 183.275C216.015 185.35 213.847 187.463 210.278 189.665C208.888 190.521 207.629 192.132 206.554 194.056C205.473 195.986 204.558 198.254 203.875 200.455C203.186 202.655 202.723 204.796 202.545 206.472C202.455 207.309 202.432 208.039 202.497 208.606C202.515 208.784 202.545 208.95 202.586 209.1C200.977 208.184 199.284 206.929 197.769 205.575C196.95 201.855 197.324 197.393 198.732 193.467C200.145 189.513 202.58 186.141 205.829 184.603C208.846 183.177 210.438 181.381 211.293 179.336C212.137 177.306 212.244 175.049 212.321 172.731C212.327 172.636 212.327 172.542 212.333 172.447C212.404 170.206 212.481 167.903 213.17 165.617C213.883 163.242 215.255 160.879 217.981 158.643C220.689 156.424 221.604 154.174 221.432 151.89C221.271 149.63 220.048 147.378 218.599 145.142C218.141 144.436 217.66 143.733 217.185 143.029C216.134 141.486 215.077 139.941 214.263 138.375C213.075 136.101 212.422 133.832 212.998 131.535C215.938 119.815 208.799 112.248 206.554 110.162L206.245 110.491C208.46 112.546 215.439 119.953 212.558 131.426C211.947 133.879 212.659 136.268 213.865 138.582C214.691 140.173 215.771 141.754 216.829 143.309C217.31 144.007 217.779 144.701 218.224 145.387C219.674 147.62 220.832 149.788 220.986 151.922C221.141 154.032 220.321 156.149 217.702 158.295C214.898 160.589 213.479 163.029 212.742 165.488C212.036 167.831 211.958 170.187 211.881 172.416C211.881 172.516 211.875 172.616 211.875 172.716C211.792 175.045 211.685 177.221 210.877 179.164C210.076 181.093 208.567 182.812 205.639 184.198C202.242 185.805 199.741 189.299 198.31 193.316C196.873 197.335 196.48 201.916 197.348 205.743L197.365 205.813L197.419 205.861C199.177 207.441 201.184 208.897 203.038 209.859L203.275 209.477C203.21 209.433 203.138 209.344 203.079 209.184C203.02 209.026 202.972 208.817 202.943 208.556C202.883 208.035 202.901 207.341 202.99 206.52C203.162 204.88 203.62 202.768 204.303 200.589C204.98 198.409 205.882 196.171 206.946 194.276C208.009 192.374 209.22 190.843 210.515 190.047C214.12 187.82 216.342 185.666 217.797 183.527C219.246 181.387 219.917 179.276 220.446 177.157C220.564 176.666 220.683 176.175 220.796 175.682C221.675 171.929 222.572 168.103 226.943 163.839C229.373 161.473 230.139 158.719 229.961 155.736C229.782 152.767 228.66 149.567 227.312 146.285C226.896 145.27 226.456 144.249 226.011 143.222C225.025 140.915 224.021 138.584 223.231 136.257C222.091 132.901 221.408 129.592 221.842 126.448C222.56 121.251 220.018 115.519 216.734 110.346C214.221 106.388 211.246 102.723 208.906 99.8414Z" fill="white"/>
<path d="M201.188 177.336C205.916 163.689 210.044 147.052 205.732 139.327C217.314 147.447 208.517 165.616 201.188 177.336Z" fill="#105CC1"/>
<path d="M192.789 198.11C191.025 201.62 206.396 214.735 208.908 209.66C209.104 209.269 209.372 208.744 209.698 208.099C206.016 207.276 197.725 203.612 193.983 195.534C193.407 196.821 192.985 197.712 192.789 198.11Z" fill="#307FE2"/>
<path d="M192.789 198.11C191.025 201.62 206.396 214.735 208.908 209.66C209.104 209.269 209.372 208.744 209.698 208.099C206.016 207.276 197.725 203.612 193.983 195.534C193.407 196.821 192.985 197.712 192.789 198.11Z" fill="url(#paint5_linear_5_1475)"/>
<path d="M192.789 198.11C191.025 201.62 206.396 214.735 208.908 209.66C209.104 209.269 209.372 208.744 209.698 208.099C206.016 207.276 197.725 203.612 193.983 195.534C193.407 196.821 192.985 197.712 192.789 198.11Z" fill="#105CC1"/>
<path d="M83.6377 36.0288H6.78391C3.38899 36.0288 0.636719 38.7805 0.636719 42.1754V59.5979C0.636719 62.9922 3.38899 65.7445 6.78391 65.7445H69.4148L88.5864 71.9754L83.314 65.7445H83.6377C87.032 65.7445 89.7843 62.9922 89.7843 59.5979V42.1754C89.7843 38.7805 87.032 36.0288 83.6377 36.0288Z" fill="#8BBAFA"/>
<path fill-rule="evenodd" clip-rule="evenodd" d="M21.2462 53.2834C22.8344 53.2834 24.122 51.9957 24.122 50.4076C24.122 48.8194 22.8344 47.5317 21.2462 47.5317C19.658 47.5317 18.371 48.8194 18.371 50.4076C18.371 51.9957 19.658 53.2834 21.2462 53.2834ZM37.542 53.2834C39.1301 53.2834 40.4178 51.9957 40.4178 50.4076C40.4178 48.8194 39.1301 47.5317 37.542 47.5317C35.9538 47.5317 34.6661 48.8194 34.6661 50.4076C34.6661 51.9957 35.9538 53.2834 37.542 53.2834ZM56.2342 50.4076C56.2342 51.9957 54.9466 53.2834 53.3584 53.2834C51.7702 53.2834 50.4826 51.9957 50.4826 50.4076C50.4826 48.8194 51.7702 47.5317 53.3584 47.5317C54.9466 47.5317 56.2342 48.8194 56.2342 50.4076ZM69.1748 53.2834C70.763 53.2834 72.0507 51.9957 72.0507 50.4076C72.0507 48.8194 70.763 47.5317 69.1748 47.5317C67.5867 47.5317 66.299 48.8194 66.299 50.4076C66.299 51.9957 67.5867 53.2834 69.1748 53.2834Z" fill="white"/>
<defs>
<linearGradient id="paint0_linear_5_1475" x1="157.268" y1="66.7843" x2="166.961" y2="71.7348" gradientUnits="userSpaceOnUse">
<stop stop-color="#F3AD8F"/>
<stop offset="1" stop-color="#FCC4AC" stop-opacity="0"/>
</linearGradient>
<linearGradient id="paint1_linear_5_1475" x1="192.613" y1="196.447" x2="168.369" y2="184.047" gradientUnits="userSpaceOnUse">
<stop stop-color="#026CF0"/>
<stop offset="1" stop-color="#307FE2" stop-opacity="0"/>
</linearGradient>
<linearGradient id="paint2_linear_5_1475" x1="136.041" y1="45.9467" x2="155.136" y2="48.0831" gradientUnits="userSpaceOnUse">
<stop stop-color="#FEA568"/>
<stop offset="1" stop-color="#F4B88E"/>
</linearGradient>
<linearGradient id="paint3_linear_5_1475" x1="100.668" y1="160.38" x2="101.922" y2="149.993" gradientUnits="userSpaceOnUse">
<stop stop-color="#0154F7"/>
<stop offset="1" stop-color="#307FE2" stop-opacity="0"/>
</linearGradient>
<linearGradient id="paint4_linear_5_1475" x1="231.317" y1="160.785" x2="222.67" y2="157.135" gradientUnits="userSpaceOnUse">
<stop stop-color="#0071FF"/>
<stop offset="1" stop-color="#307FE2" stop-opacity="0"/>
</linearGradient>
<linearGradient id="paint5_linear_5_1475" x1="231.317" y1="160.786" x2="222.67" y2="157.135" gradientUnits="userSpaceOnUse">
<stop stop-color="#0071FF"/>
<stop offset="1" stop-color="#307FE2" stop-opacity="0"/>
</linearGradient>
</defs>
</svg>
